<svg xmlns="http://www.w3.org/2000/svg" width="1003" height="572" fill="none"><path fill="#009EE0" fill-rule="evenodd" d="M140.549 453.178H76V419.92c1.169-.584 2.118-1.314 2.843-2.184.732-.879 1.39-1.977 1.97-3.29.442-1.307.88-2.622 1.311-3.935a32.924 32.924 0 0 0 1.097-4.157c0-.29.038-.59.106-.878.08-.291.19-.582.33-.872v-.437c0-.148.076-.294.223-.439v-.877c0-.287.033-.622.108-.978a3.94 3.94 0 0 1 .326-.991c0-.294.039-.583.112-.875.074-.291.18-.584.329-.88l24.73-133.477h83.151l27.348 135.89v1.092c0 .29.076.587.223.879 0 .432.034.801.108 1.093.07.29.185.581.329.872 0 .288.028.588.108.878.074.292.185.58.329.869.15.441.258.805.327 1.099.078.292.184.584.329.876a18.17 18.17 0 0 0 1.203 3.615c.516 1.09 1.061 2.22 1.643 3.386a14.117 14.117 0 0 0 2.404 2.629 7.725 7.725 0 0 0 2.85 1.53v32.82h-73.74V419.92c1.159-.144 2.145-.543 2.946-1.206a10.276 10.276 0 0 0 2.085-2.295 10.108 10.108 0 0 0 1.307-2.844c.295-1.021.442-2.189.442-3.5v-1.533c-.147-.146-.222-.365-.222-.654v-.665a8.505 8.505 0 0 1-.33-1.309 8.178 8.178 0 0 0-.328-1.31l-28.226-.437c-.146.437-.256.765-.335.986a2.69 2.69 0 0 0-.102.761v.663c-.15.142-.22.247-.22.326v1.195c-.144.148-.218.26-.218.333v1.644c0 1.311.182 2.517.54 3.61a12.56 12.56 0 0 0 1.432 2.955c.73.866 1.529 1.636 2.402 2.294.878.655 1.97 1.132 3.279 1.424v-.438 33.258Zm16.194-85.554-9.622-55.581h-.441l-9.191 55.581h19.254Zm154.497 75.053c-.147.291-.258.473-.332.546a.463.463 0 0 0-.111.33c-.141.145-.253.255-.327.326-.073.076-.181.108-.328.108a1.596 1.596 0 0 1-.436.329 1.973 1.973 0 0 0-.442.329 72.525 72.525 0 0 1-7.87 5.365c-2.633 1.528-5.257 2.586-7.886 3.168a64.633 64.633 0 0 1-8.645 2.084c-2.987.508-6.164.764-9.512.764-5.984 0-11.383-.84-16.201-2.514-4.809-1.681-8.968-4.267-12.467-7.774-3.501-3.498-6.126-7.616-7.877-12.36-1.753-4.74-2.626-10.177-2.626-16.304 0-6.858.946-12.725 2.842-17.615 1.897-4.885 4.671-8.714 8.32-11.487 3.789-2.915 8.059-5.543 12.799-7.875 4.741-2.337 10.03-4.452 15.864-6.349l33.259-11.162v-4.812c0-1.456-.141-2.915-.435-4.375a24.377 24.377 0 0 0-1.313-4.376c-.581-1.459-1.494-2.552-2.733-3.281-1.241-.73-2.735-1.096-4.489-1.096-2.042 0-3.718.366-5.035 1.096-1.308.729-2.331 1.822-3.056 3.281a31.878 31.878 0 0 0-1.431 4.482 20.294 20.294 0 0 0-.543 4.706v5.253h-48.357v-33.925a99.032 99.032 0 0 1 11.701-6.561 90.899 90.899 0 0 1 12.586-4.808 118.562 118.562 0 0 1 13.351-3.176 123.79 123.79 0 0 1 13.564-1.642h1.313c.437 0 .872-.073 1.31-.22h3.721c.438 0 .876-.069 1.317-.217h2.622c1.313 0 2.665.034 4.047.106 1.389.078 2.815.185 4.268.331.737 0 1.462.039 2.191.11.725.073 1.53.181 2.407.327.732 0 1.46.039 2.191.11.727.074 1.456.182 2.186.33 2.333.439 4.632.948 6.893 1.533 2.263.582 4.558 1.238 6.89 1.969a48.371 48.371 0 0 1 6.347 2.629 36.47 36.47 0 0 1 5.69 3.494c3.647 2.777 6.532 5.8 8.64 9.084 2.119 3.281 3.469 6.673 4.054 10.177.729 3.497 1.201 7.149 1.422 10.939.217 3.793.325 7.659.325 11.597v40.263c0 1.607.074 3.178.217 4.705.153 1.53.295 3.026.442 4.482.292 1.463.915 2.811 1.859 4.05.948 1.241 2.226 2.444 3.831 3.613v30.414H311.24v-10.501Zm-1.976-48.138c-.141.287-.326.473-.544.547-.216.07-.403.183-.546.325-.291.147-.511.253-.658.333-.148.071-.357.107-.661.107-.432.144-.872.291-1.307.439a7.35 7.35 0 0 0-1.091.434c-.151.147-.294.217-.446.217h-.213l-.218.224a45.49 45.49 0 0 0-5.693 2.187 89.33 89.33 0 0 0-5.247 2.621c-1.603 1.027-2.809 2.231-3.613 3.616-.807 1.383-1.205 3.025-1.205 4.922v1.092c0 1.022.186 1.972.543 2.843a10.02 10.02 0 0 0 1.428 2.411c.581.879 1.244 1.495 1.971 1.857.728.37 1.606.473 2.623.329h.872c1.169 0 2.303-.075 3.398-.215a15.454 15.454 0 0 0 3.391-.882c1.162-.44 2.369-.98 3.612-1.635a27.853 27.853 0 0 0 3.604-2.3v-19.472Zm125.609-36.765 9.189-10.718c.73-.737 1.424-1.5 2.083-2.3a19.827 19.827 0 0 0 1.64-2.299c.442-.727.874-1.499 1.307-2.299.441-.804.736-1.568.88-2.296.293-.876.544-1.861.764-2.952.22-1.098.328-2.153.328-3.175v-1.747c0-.585.074-1.171.223-1.756v-12.909h57.766v30.857c-.291.291-.693.619-1.203.987-.513.359-1.129.684-1.86.977-.293.148-.619.33-.986.547-.362.22-.689.403-.982.549-.438.295-.841.584-1.205.874-.369.292-.699.586-.98.874-.156.149-.297.294-.44.441-.145.144-.299.218-.436.218-.146.15-.296.293-.434.44-.153.141-.297.288-.446.439a1.59 1.59 0 0 0-.326.436.348.348 0 0 1-.33.215 1.849 1.849 0 0 0-.326.44c-.077.15-.184.292-.325.437l-15.978 19.694 14.447 29.763c0 .432.033.764.106.981.068.221.18.477.323.766.15.148.253.293.332.437.073.149.18.293.328.44v.442c0 .142.072.216.215.216.737 1.603 1.501 3.17 2.302 4.704a89.445 89.445 0 0 0 2.516 4.488 14.157 14.157 0 0 0 3.394 3.824c1.384 1.096 3.026 2.083 4.922 2.955v30.414h-46.614l-29.755-59.954h-.439v13.13c0 1.744.069 3.355.22 4.811.142 1.46.291 2.846.436 4.158.292 1.317.906 2.589 1.86 3.828.948 1.241 2.224 2.444 3.835 3.613v30.414h-64.341v-30.849c.15.144.253.217.328.217.077 0 .182-.073.332-.217.145-.15.259-.258.327-.334.069-.069.182-.174.33-.324 1.168-1.17 2.149-2.335 2.953-3.501.801-1.166 1.272-2.336 1.423-3.501.29-1.166.472-2.48.546-3.943.068-1.456.104-2.991.104-4.591v-91.467c0 .143 0 .143 0 0v-1.316c0-1.609-.072-3.174-.212-4.705a36.14 36.14 0 0 0-.657-4.265c-.149-1.312-.698-2.59-1.646-3.829-.946-1.242-2.218-2.441-3.828-3.612V265.65h57.99v92.124Zm160.837 84.903c-.147.291-.255.473-.331.546-.075.074-.109.183-.109.33-.14.145-.25.255-.323.326-.079.076-.185.108-.329.108a1.538 1.538 0 0 1-.44.329 1.793 1.793 0 0 0-.438.329c-2.631 2.044-5.257 3.83-7.882 5.365-2.624 1.528-5.251 2.586-7.875 3.168a64.88 64.88 0 0 1-8.644 2.084c-2.989.508-6.163.764-9.516.764-5.982 0-11.383-.84-16.191-2.514-4.819-1.681-8.977-4.267-12.474-7.774-3.498-3.498-6.13-7.616-7.878-12.36-1.754-4.74-2.629-10.177-2.629-16.304 0-6.858.949-12.725 2.842-17.615 1.899-4.885 4.679-8.714 8.317-11.487 3.797-2.915 8.062-5.543 12.802-7.875 4.745-2.337 10.03-4.452 15.866-6.349l33.262-11.162v-4.812c0-1.456-.15-2.915-.437-4.375a24.39 24.39 0 0 0-1.316-4.376c-.585-1.459-1.491-2.552-2.735-3.281-1.24-.73-2.73-1.096-4.481-1.096-2.045 0-3.724.366-5.038 1.096-1.303.729-2.331 1.822-3.057 3.281a31.348 31.348 0 0 0-1.427 4.482 20.351 20.351 0 0 0-.547 4.706v5.253h-48.361v-33.925a98.855 98.855 0 0 1 11.706-6.561 90.948 90.948 0 0 1 12.586-4.808 118.6 118.6 0 0 1 13.344-3.176 124.116 124.116 0 0 1 13.569-1.642h1.315c.435 0 .872-.073 1.31-.22h3.721c.438 0 .879-.069 1.315-.217h2.621c1.315 0 2.668.034 4.053.106 1.386.078 2.802.185 4.267.331.726 0 1.457.039 2.181.11a37.48 37.48 0 0 1 2.416.327 22.16 22.16 0 0 1 4.37.44c2.337.439 4.638.948 6.897 1.533 2.261.582 4.56 1.238 6.89 1.969a48.09 48.09 0 0 1 6.347 2.629 36.357 36.357 0 0 1 5.688 3.494c3.651 2.777 6.532 5.8 8.65 9.084 2.115 3.281 3.458 6.673 4.042 10.177.73 3.497 1.205 7.149 1.429 10.939.216 3.793.326 7.659.326 11.597v40.263c0 1.607.072 3.178.217 4.705.148 1.53.29 3.026.436 4.482a9.936 9.936 0 0 0 1.855 4.05c.952 1.241 2.228 2.444 3.84 3.613v30.414H595.71v-10.501Zm-1.97-48.138c-.15.287-.329.473-.545.547-.221.07-.403.183-.554.325-.289.147-.511.253-.654.333-.144.071-.364.107-.653.107-.437.144-.878.291-1.315.439a7.962 7.962 0 0 0-1.096.434c-.141.147-.293.217-.44.217h-.212l-.224.224a45.618 45.618 0 0 0-5.689 2.187 92.517 92.517 0 0 0-5.246 2.621c-1.611 1.027-2.815 2.231-3.612 3.616-.804 1.383-1.206 3.025-1.206 4.922v1.092c0 1.022.184 1.972.546 2.843.366.877.843 1.681 1.423 2.411.585.879 1.238 1.495 1.972 1.857.729.37 1.603.473 2.626.329h.872c1.171 0 2.297-.075 3.393-.215a15.479 15.479 0 0 0 3.396-.882c1.166-.44 2.361-.98 3.607-1.635a27.721 27.721 0 0 0 3.611-2.3v-19.472Zm118.167 10.5v5.907c0 1.752.176 3.398.548 4.925a24.59 24.59 0 0 0 1.417 4.271c.586 1.453 1.574 2.516 2.954 3.169 1.392.656 3.177.987 5.366.987a9.198 9.198 0 0 0 3.716-.765c1.169-.512 2.264-1.277 3.286-2.296a12.596 12.596 0 0 0 2.076-3.394c.512-1.243.769-2.589.769-4.052 0-2.188-.443-4.082-1.317-5.693-.873-1.604-2.115-2.913-3.719-3.931a24.392 24.392 0 0 0-5.029-2.844 49.658 49.658 0 0 0-5.696-1.971 8.72 8.72 0 0 0-1.202-.329 3.837 3.837 0 0 1-.983-.329c-.442 0-.84-.039-1.2-.11a8.542 8.542 0 0 1-1.204-.334 58.435 58.435 0 0 1-2.082-.431 71.375 71.375 0 0 1-1.857-.438c-.156 0-.226-.072-.226-.216h-.435c-.288 0-.581-.039-.875-.112a4.303 4.303 0 0 1-.875-.329 3.91 3.91 0 0 1-.873-.106 4.674 4.674 0 0 1-.879-.328c-5.832-1.32-11.268-2.887-16.3-4.709-5.037-1.82-9.665-3.903-13.898-6.235-4.082-2.332-7.181-5.872-9.3-10.612-2.109-4.742-3.168-10.688-3.168-17.837 0-3.647.289-7.11.873-10.39.583-3.284 1.386-6.315 2.408-9.082a30.453 30.453 0 0 1 4.814-8.096c2.039-2.483 4.666-4.813 7.872-7.006a31.712 31.712 0 0 1 5.262-3.064 37.746 37.746 0 0 1 6.123-2.185 56.776 56.776 0 0 1 6.343-1.859 67.875 67.875 0 0 1 6.569-1.204 24.253 24.253 0 0 1 3.935-.549 70.359 70.359 0 0 0 3.94-.33h1.968c.581 0 1.24-.069 1.97-.217h9.628c.293.148.623.217.984.217h.989c4.812.147 9.592.657 14.333 1.536a155.7 155.7 0 0 1 14.11 3.281 73.463 73.463 0 0 1 13.461 5.253 87.003 87.003 0 0 1 12.365 7.658v32.385h-47.921v-5.034c0 .146 0 .146 0 0v-1.533a19.033 19.033 0 0 0-.881-4.152 17.162 17.162 0 0 0-1.75-3.723c-.73-1.168-1.747-2.078-3.063-2.737-1.311-.653-2.848-.984-4.594-.984-1.458 0-2.773.255-3.942.767a13.51 13.51 0 0 0-3.283 2.076c-1.014.878-1.745 1.862-2.184 2.958-.439 1.092-.66 2.294-.66 3.608 0 1.749.333 3.283.983 4.599.659 1.311 1.646 2.404 2.959 3.282a21.444 21.444 0 0 0 4.267 2.186c1.53.581 3.025 1.02 4.483 1.313.293.146.625.255.987.331.361.068.76.182 1.201.329.3.139.626.249.991.325.359.072.689.106.98.106.293 0 .586.039.875.115.291.071.661.104 1.095.104.29.149.587.257.876.331.29.073.584.112.874.112.292.144.586.25.878.325.286.075.58.11.876.11h.869c.15.143.297.221.44.221h.439c6.419 1.453 12.402 3.132 17.942 5.027 5.543 1.897 10.724 4.091 15.543 6.567 4.81 2.338 8.422 6.123 10.824 11.384 2.411 5.242 3.617 11.961 3.617 20.128 0 8.9-1.46 16.374-4.381 22.426-2.92 6.057-7.365 10.543-13.346 13.455-5.837 3.066-12.219 5.296-19.148 6.678-6.928 1.389-14.261 2.081-21.989 2.081-1.901 0-3.756-.039-5.587-.108a57.29 57.29 0 0 1-5.794-.551 47.803 47.803 0 0 0-3.066-.326 29.152 29.152 0 0 1-2.844-.33 705.739 705.739 0 0 0-3.063-.432c-1.027-.153-2.04-.294-3.066-.441a79.848 79.848 0 0 1-10.28-1.969 89.785 89.785 0 0 1-10.068-3.283c-3.21-1.319-6.203-2.875-8.972-4.707a56.856 56.856 0 0 1-7.659-6.018V401.76h48.581v3.279Zm139.827-83.592a8.864 8.864 0 0 0 2.188-.76c.73-.364 1.459-.764 2.189-1.205a50.291 50.291 0 0 0 2.296-.99 75.353 75.353 0 0 1 2.295-.984 78.792 78.792 0 0 1 6.568-2.293 42.116 42.116 0 0 1 6.562-1.426c2.19-.283 4.38-.51 6.57-.657 2.188-.141 4.3-.217 6.343-.217 2.626.148 5.178.437 7.658.874 2.485.44 4.817 1.094 7.007 1.973 2.182.872 4.194 1.823 6.013 2.845 1.824 1.022 3.391 2.189 4.708 3.501 2.337 2.332 4.232 4.706 5.686 7.114 1.457 2.405 2.479 4.849 3.061 7.327a64.335 64.335 0 0 1 1.32 7.877c.29 2.77.435 5.61.435 8.536v55.36c0 1.453.074 2.881.219 4.27.143 1.379.363 2.731.653 4.048a8.067 8.067 0 0 0 1.751 3.502c.878 1.016 2.043 1.894 3.501 2.622v30.414h-54.925a70.154 70.154 0 0 1-1.091-5.911 483.502 483.502 0 0 1-.872-6.34 51.659 51.659 0 0 1-.329-3.284 44.797 44.797 0 0 1-.114-3.283 22.633 22.633 0 0 1-.215-3.172v-3.173a28.995 28.995 0 0 1-.219-3.606v-58.321c0-.729-.039-1.495-.114-2.297-.068-.801-.257-1.642-.545-2.514v-.444c0-.143-.071-.287-.221-.432-.142-.296-.216-.511-.216-.654a.945.945 0 0 0-.11-.442.98.98 0 0 1-.111-.437c-.144 0-.213-.073-.213-.217v-.44a21.424 21.424 0 0 0-2.083-2.622c-.802-.879-1.639-1.61-2.515-2.19-1.028-.734-2.081-1.243-3.175-1.533a13.042 13.042 0 0 0-3.391-.437c-.584 0-1.132.034-1.642.111-.512.068-1.057.179-1.643.326-.581.148-1.126.29-1.64.441a9.175 9.175 0 0 0-1.639.655v55.36c0 1.453.072 2.881.219 4.27.143 1.379.361 2.731.655 4.048.291 1.306.911 2.476 1.863 3.502.944 1.016 2.146 1.894 3.612 2.622v30.414h-64.344v-30.849c1.609-.734 2.884-1.64 3.835-2.74a6.724 6.724 0 0 0 1.639-3.83c.296-1.313.511-2.734.661-4.262.144-1.534.214-3.175.214-4.92v-91.909.215-1.968c0-1.597-.07-3.174-.214-4.708a44.306 44.306 0 0 0-.661-4.484c-.291-1.454-.91-2.733-1.859-3.824-.946-1.099-2.227-2.08-3.827-2.958V265.65h58.207v55.797ZM502.005 0c67.75 0 122.997 55.258 122.997 123.008 0 67.735-55.247 122.992-122.997 122.992C434.254 246 379 190.743 379 123.008 379 55.258 434.254 0 502.005 0Zm0 14.216c59.913 0 108.788 48.872 108.788 108.792 0 59.911-48.875 108.773-108.788 108.773-59.92 0-108.784-48.862-108.784-108.773 0-59.92 48.864-108.792 108.784-108.792Z" clip-rule="evenodd"/><path fill="#009EE0" fill-rule="evenodd" d="M502 28.137c7.18 0 13 5.817 13 12.997 0 7.173-5.82 13.003-13 13.003-7.183 0-13-5.83-13-13.003 0-7.18 5.817-12.997 13-12.997Zm-53.261 148.697c-7.332 3.365-16.009.179-19.39-7.123-3.383-7.305-.184-15.954 7.15-19.32 13.167-5.469 25.995-14.323 34.48-25.599 8.391-10.614 15.264-24.668 16.433-44.642v-.012c.057-.99.21-1.954.453-2.883l.017-.05c.022-.094.051-.196.076-.29l.023-.062c.022-.094.05-.177.08-.27l.04-.105c.017-.076.045-.144.069-.221l.04-.119c.017-.064.051-.127.069-.2l.069-.177.051-.13c.028-.07.058-.141.087-.222l.039-.086c.034-.084.08-.171.112-.259l.022-.042c.045-.103.088-.202.138-.297.4-.854.883-1.66 1.439-2.403l.012-.01a7.73 7.73 0 0 1 .407-.523l.045-.054a4.13 4.13 0 0 1 .173-.21l.066-.071c.039-.057.093-.113.141-.17l.11-.119.132-.15.1-.1c.045-.044.088-.092.136-.137l.117-.125.126-.12.141-.135.098-.093.15-.142.12-.102c.056-.047.112-.102.164-.15l.075-.054c.071-.064.138-.121.209-.181l.056-.047c.17-.135.345-.268.526-.406l.011-.002a15.165 15.165 0 0 1 2.41-1.44l.298-.13.04-.024c.089-.035.182-.073.262-.114l.095-.032c.076-.033.142-.06.219-.088l.129-.056.181-.06c.065-.03.131-.047.194-.072l.12-.045c.076-.02.15-.045.222-.072l.104-.03c.091-.026.185-.058.269-.08l.066-.02c.1-.03.196-.055.288-.08l.051-.015c.937-.24 1.905-.394 2.9-.45h.005c.112-.007.221-.015.328-.015h.071c.083-.005.162-.005.243-.005l.159-.004.156.004c.083 0 .163 0 .251.005h.061c.11 0 .217.008.332.014h.011c.987.057 1.958.211 2.89.45l.046.017c.102.023.2.048.297.08l.066.02c.09.021.178.053.259.08l.11.03c.072.026.15.052.223.071l.121.046c.067.024.134.042.203.071l.18.06.124.056c.078.027.148.055.217.088l.094.032c.084.04.175.079.259.114l.045.023c.098.044.197.09.299.13.85.412 1.656.89 2.405 1.44l.011.003c.179.138.354.271.521.406l.06.047c.074.06.145.117.214.181l.069.055c.057.047.114.102.169.148l.113.103.151.142.101.093c.057.041.097.089.146.135l.122.12.119.125.139.137.093.1.142.15.101.119c.051.057.099.113.153.17l.057.072c.056.068.122.136.181.209l.045.054c.136.171.268.342.396.523l.012.01a14.14 14.14 0 0 1 1.436 2.403c.051.095.099.194.142.297l.016.042c.034.088.074.175.113.26l.034.085c.034.08.063.153.093.221l.05.13.065.178.075.2.045.119c.023.077.045.145.073.22l.029.106c.028.093.05.176.085.27l.017.063c.028.093.05.195.084.29l.011.05c.245.928.404 1.893.453 2.882v.011c1.174 19.975 8.26 33.811 16.648 44.428 8.015 11.208 20.415 20.627 34.264 26.026 7.332 3.368 10.531 12.017 7.151 19.316-3.387 7.306-12.067 10.495-19.389 7.129-17.363-7.423-35.718-22.447-46.753-38.136a91.787 91.787 0 0 1-6.727-9.745 89.855 89.855 0 0 1-6.72 9.745c-11.798 15.733-29.359 30.462-46.319 37.922h-.006Z" clip-rule="evenodd"/><path fill="#1B1918" fill-rule="evenodd" d="M1002 480.287H2v-6h1000v6Zm-716.823 91.525v-78.85h6v78.85h-6Z" clip-rule="evenodd"/><mask id="a" width="273" height="67" x="0" y="498.826" fill="#000" maskUnits="userSpaceOnUse"><path fill="#fff" d="M0 498.826h273v67H0z"/><path fill-rule="evenodd" d="M18.864 544.971c0 3.913.165 7.191.475 9.829.328 2.655.894 5.374 1.707 8.177H7.291a51.128 51.128 0 0 0 1.665-8.095c.31-2.64.473-5.941.473-9.911v-36.686L3 500.826h14.592c.028.822.285 1.747.76 2.801a13.605 13.605 0 0 0 1.854 2.95l19.592 24.195h.011L57.692 508a22.316 22.316 0 0 0 2.588-3.941c.66-1.313.987-2.38.987-3.233h13.292c-1.907 2.801-3.235 5.524-3.98 8.175-.757 2.64-1.137 5.918-1.137 9.829v26.141c0 3.913.164 7.191.475 9.829.324 2.655.892 5.374 1.705 8.177H57.868a50.806 50.806 0 0 0 1.663-8.095c.313-2.64.476-5.941.476-9.911v-26.777h-.01l-20.54 26.777-20.593-25.385v25.385Zm80.839 18.954c-5.945 0-10.833-1.991-14.635-5.97-3.804-3.979-5.713-9.084-5.713-15.326 0-6.796 1.676-12.454 5.022-16.962 3.345-4.51 7.526-6.755 12.55-6.755h.082c4.913 0 8.704 1.703 11.371 5.118 2.655 3.41 3.981 8.271 3.981 14.593v3.885H88.479c.42 3.913 1.557 7.162 3.413 9.76 2.354 3.278 5.548 4.915 9.598 4.915 1.828 0 3.614-.243 5.388-.717a18.444 18.444 0 0 0 4.805-2.018l-3.412 8.245c-1.88.503-3.398.84-4.535.987-1.151.164-2.505.245-4.033.245Zm5.589-27.402c-.028-3.763-.716-6.631-2.071-8.61-1.367-1.987-3.356-2.979-5.982-2.979h.04c-2.858 0-5.066 1.22-6.621 3.657-1.246 1.95-2.005 4.603-2.26 7.932h16.894Zm31.045 27.402c-5.306 0-9.519-1.666-12.631-4.996-3.099-3.331-4.658-7.838-4.658-13.526 0-7.591 2.151-13.9 6.444-18.937 4.291-5.036 9.679-7.554 16.166-7.554 1.745 0 3.37.243 4.874.716v-3.37c0-2.802-.136-5.133-.395-6.986a28.533 28.533 0 0 0-1.433-5.632l6.039-1.232 6.063-1.275c-.637 1.747-1.071 3.822-1.314 6.229-.231 2.413-.35 5.796-.35 10.157v32.841c0 3.357.133 5.957.416 7.8.273 1.84.76 3.437 1.451 4.817h-10.477V557.1l-5.12 5.797c-1.976.717-3.667 1.055-5.075 1.028Zm2.383-38.909c-3.833 0-6.593 1.3-8.287 3.913-1.692 2.598-2.543 6.851-2.543 12.739 0 4.712 1.027 8.449 3.07 11.211 2.046 2.762 4.82 4.142 8.315 4.142 1.692 0 3.262-.311 4.724-.949l2.533-1.354v-27.195c-2.005-1.666-4.618-2.507-7.812-2.507Zm27.17 25.344v-17.883c0-2.327-.134-4.414-.393-6.269-.271-1.854-.746-3.966-1.437-6.348h12.307c-.69 1.378-1.176 2.991-1.446 4.833-.285 1.853-.422 4.453-.422 7.784v17.883c0 3.357.137 5.957.422 7.8.27 1.84.756 3.437 1.446 4.817H164.06c.691-1.326 1.166-2.91 1.437-4.765.259-1.84.393-4.469.393-7.852Zm4.09-48.506c1.61 0 2.978.649 4.1 1.947 1.124 1.286 1.678 2.872 1.678 4.753 0 1.881-.554 3.452-1.678 4.739-1.122 1.286-2.49 1.923-4.1 1.923-1.625 0-2.994-.637-4.115-1.923-1.126-1.287-1.68-2.858-1.68-4.739 0-1.881.554-3.467 1.68-4.753 1.121-1.298 2.49-1.947 4.115-1.947Zm41.398 60.839c-1.962.503-3.534.84-4.738.987-1.205.164-2.627.245-4.267.245-5.711 0-10.463-2.003-14.267-6.024-3.791-4.021-5.686-9.071-5.686-15.149 0-6.824 2.099-12.508 6.309-17.044 4.198-4.536 9.464-6.796 15.786-6.796 1.692 0 3.166.051 4.425.176 1.246.121 2.992.378 5.213.772l-.432 9.948c-1.587-1.719-3.169-2.951-4.737-3.722-1.584-.77-3.305-1.152-5.185-1.152-3.808 0-6.825 1.437-9.059 4.306-2.233 2.871-3.357 6.742-3.357 11.643 0 4.998 1.192 8.962 3.56 11.899 2.356 2.941 5.551 4.401 9.572 4.401 1.378 0 2.802-.202 4.277-.597 1.489-.39 3.479-1.109 5.997-2.138l-3.411 8.245Zm21.417 1.232c-4.21 0-7.446-.894-9.72-2.694-2.274-1.801-3.412-4.371-3.412-7.703 0-2.22.799-4.305 2.396-6.27 1.6-1.948 3.763-3.502 6.484-4.641l12.702-5.227v-3.925c0-2.356-.731-4.225-2.183-5.605-1.461-1.394-3.411-2.084-5.874-2.084-1.584 0-3.113.27-4.603.811-1.474.541-3.102 1.434-4.875 2.67l2.383-8.288c1.693-.718 3.331-1.233 4.913-1.557 1.587-.338 3.198-.5 4.833-.5 4.657 0 8.164 1.218 10.508 3.654 2.343 2.425 3.508 6.066 3.508 10.899v16.895c0 3.603.108 6.324.337 8.151.215 1.84.623 3.329 1.204 4.466h-10.151v-4.13l-6.703 4.997-1.747.081Zm8.45-7.499v-11.859h-11.117c-.259 0-.595.799-1.014 2.395-.408 1.597-.61 2.953-.61 4.034 0 2.031.662 3.563 1.988 4.577 1.315 1.013 3.305 1.527 5.945 1.527 1.638 0 3.224-.228 4.726-.674h.082Zm19.046-6.066v-34.102c0-2.802-.136-5.133-.393-6.986a28.673 28.673 0 0 0-1.433-5.632l6.158-1.232 6.148-1.275c-.692 1.965-1.178 4.148-1.452 6.542-.282 2.408-.417 5.686-.417 9.844v32.841c0 3.357.135 5.957.417 7.8.274 1.84.76 3.437 1.452 4.817h-12.306c.689-1.326 1.164-2.91 1.433-4.765.257-1.84.393-4.469.393-7.852Z" clip-rule="evenodd"/></mask><path fill="#E30016" fill-rule="evenodd" d="M18.864 544.971c0 3.913.165 7.191.475 9.829.328 2.655.894 5.374 1.707 8.177H7.291a51.128 51.128 0 0 0 1.665-8.095c.31-2.64.473-5.941.473-9.911v-36.686L3 500.826h14.592c.028.822.285 1.747.76 2.801a13.605 13.605 0 0 0 1.854 2.95l19.592 24.195h.011L57.692 508a22.316 22.316 0 0 0 2.588-3.941c.66-1.313.987-2.38.987-3.233h13.292c-1.907 2.801-3.235 5.524-3.98 8.175-.757 2.64-1.137 5.918-1.137 9.829v26.141c0 3.913.164 7.191.475 9.829.324 2.655.892 5.374 1.705 8.177H57.868a50.806 50.806 0 0 0 1.663-8.095c.313-2.64.476-5.941.476-9.911v-26.777h-.01l-20.54 26.777-20.593-25.385v25.385Zm80.839 18.954c-5.945 0-10.833-1.991-14.635-5.97-3.804-3.979-5.713-9.084-5.713-15.326 0-6.796 1.676-12.454 5.022-16.962 3.345-4.51 7.526-6.755 12.55-6.755h.082c4.913 0 8.704 1.703 11.371 5.118 2.655 3.41 3.981 8.271 3.981 14.593v3.885H88.479c.42 3.913 1.557 7.162 3.413 9.76 2.354 3.278 5.548 4.915 9.598 4.915 1.828 0 3.614-.243 5.388-.717a18.444 18.444 0 0 0 4.805-2.018l-3.412 8.245c-1.88.503-3.398.84-4.535.987-1.151.164-2.505.245-4.033.245Zm5.589-27.402c-.028-3.763-.716-6.631-2.071-8.61-1.367-1.987-3.356-2.979-5.982-2.979h.04c-2.858 0-5.066 1.22-6.621 3.657-1.246 1.95-2.005 4.603-2.26 7.932h16.894Zm31.045 27.402c-5.306 0-9.519-1.666-12.631-4.996-3.099-3.331-4.658-7.838-4.658-13.526 0-7.591 2.151-13.9 6.444-18.937 4.291-5.036 9.679-7.554 16.166-7.554 1.745 0 3.37.243 4.874.716v-3.37c0-2.802-.136-5.133-.395-6.986a28.533 28.533 0 0 0-1.433-5.632l6.039-1.232 6.063-1.275c-.637 1.747-1.071 3.822-1.314 6.229-.231 2.413-.35 5.796-.35 10.157v32.841c0 3.357.133 5.957.416 7.8.273 1.84.76 3.437 1.451 4.817h-10.477V557.1l-5.12 5.797c-1.976.717-3.667 1.055-5.075 1.028Zm2.383-38.909c-3.833 0-6.593 1.3-8.287 3.913-1.692 2.598-2.543 6.851-2.543 12.739 0 4.712 1.027 8.449 3.07 11.211 2.046 2.762 4.82 4.142 8.315 4.142 1.692 0 3.262-.311 4.724-.949l2.533-1.354v-27.195c-2.005-1.666-4.618-2.507-7.812-2.507Zm27.17 25.344v-17.883c0-2.327-.134-4.414-.393-6.269-.271-1.854-.746-3.966-1.437-6.348h12.307c-.69 1.378-1.176 2.991-1.446 4.833-.285 1.853-.422 4.453-.422 7.784v17.883c0 3.357.137 5.957.422 7.8.27 1.84.756 3.437 1.446 4.817H164.06c.691-1.326 1.166-2.91 1.437-4.765.259-1.84.393-4.469.393-7.852Zm4.09-48.506c1.61 0 2.978.649 4.1 1.947 1.124 1.286 1.678 2.872 1.678 4.753 0 1.881-.554 3.452-1.678 4.739-1.122 1.286-2.49 1.923-4.1 1.923-1.625 0-2.994-.637-4.115-1.923-1.126-1.287-1.68-2.858-1.68-4.739 0-1.881.554-3.467 1.68-4.753 1.121-1.298 2.49-1.947 4.115-1.947Zm41.398 60.839c-1.962.503-3.534.84-4.738.987-1.205.164-2.627.245-4.267.245-5.711 0-10.463-2.003-14.267-6.024-3.791-4.021-5.686-9.071-5.686-15.149 0-6.824 2.099-12.508 6.309-17.044 4.198-4.536 9.464-6.796 15.786-6.796 1.692 0 3.166.051 4.425.176 1.246.121 2.992.378 5.213.772l-.432 9.948c-1.587-1.719-3.169-2.951-4.737-3.722-1.584-.77-3.305-1.152-5.185-1.152-3.808 0-6.825 1.437-9.059 4.306-2.233 2.871-3.357 6.742-3.357 11.643 0 4.998 1.192 8.962 3.56 11.899 2.356 2.941 5.551 4.401 9.572 4.401 1.378 0 2.802-.202 4.277-.597 1.489-.39 3.479-1.109 5.997-2.138l-3.411 8.245Zm21.417 1.232c-4.21 0-7.446-.894-9.72-2.694-2.274-1.801-3.412-4.371-3.412-7.703 0-2.22.799-4.305 2.396-6.27 1.6-1.948 3.763-3.502 6.484-4.641l12.702-5.227v-3.925c0-2.356-.731-4.225-2.183-5.605-1.461-1.394-3.411-2.084-5.874-2.084-1.584 0-3.113.27-4.603.811-1.474.541-3.102 1.434-4.875 2.67l2.383-8.288c1.693-.718 3.331-1.233 4.913-1.557 1.587-.338 3.198-.5 4.833-.5 4.657 0 8.164 1.218 10.508 3.654 2.343 2.425 3.508 6.066 3.508 10.899v16.895c0 3.603.108 6.324.337 8.151.215 1.84.623 3.329 1.204 4.466h-10.151v-4.13l-6.703 4.997-1.747.081Zm8.45-7.499v-11.859h-11.117c-.259 0-.595.799-1.014 2.395-.408 1.597-.61 2.953-.61 4.034 0 2.031.662 3.563 1.988 4.577 1.315 1.013 3.305 1.527 5.945 1.527 1.638 0 3.224-.228 4.726-.674h.082Zm19.046-6.066v-34.102c0-2.802-.136-5.133-.393-6.986a28.673 28.673 0 0 0-1.433-5.632l6.158-1.232 6.148-1.275c-.692 1.965-1.178 4.148-1.452 6.542-.282 2.408-.417 5.686-.417 9.844v32.841c0 3.357.135 5.957.417 7.8.274 1.84.76 3.437 1.452 4.817h-12.306c.689-1.326 1.164-2.91 1.433-4.765.257-1.84.393-4.469.393-7.852Z" clip-rule="evenodd"/><path stroke="#E30016" stroke-width="2" d="M18.864 544.971c0 3.913.165 7.191.475 9.829.328 2.655.894 5.374 1.707 8.177H7.291a51.128 51.128 0 0 0 1.665-8.095c.31-2.64.473-5.941.473-9.911v-36.686L3 500.826h14.592c.028.822.285 1.747.76 2.801a13.605 13.605 0 0 0 1.854 2.95l19.592 24.195h.011L57.692 508a22.316 22.316 0 0 0 2.588-3.941c.66-1.313.987-2.38.987-3.233h13.292c-1.907 2.801-3.235 5.524-3.98 8.175-.757 2.64-1.137 5.918-1.137 9.829v26.141c0 3.913.164 7.191.475 9.829.324 2.655.892 5.374 1.705 8.177H57.868a50.806 50.806 0 0 0 1.663-8.095c.313-2.64.476-5.941.476-9.911v-26.777h-.01l-20.54 26.777-20.593-25.385v25.385Zm80.839 18.954c-5.945 0-10.833-1.991-14.635-5.97-3.804-3.979-5.713-9.084-5.713-15.326 0-6.796 1.676-12.454 5.022-16.962 3.345-4.51 7.526-6.755 12.55-6.755h.082c4.913 0 8.704 1.703 11.371 5.118 2.655 3.41 3.981 8.271 3.981 14.593v3.885H88.479c.42 3.913 1.557 7.162 3.413 9.76 2.354 3.278 5.548 4.915 9.598 4.915 1.828 0 3.614-.243 5.388-.717a18.444 18.444 0 0 0 4.805-2.018l-3.412 8.245c-1.88.503-3.398.84-4.535.987-1.151.164-2.505.245-4.033.245Zm5.589-27.402c-.028-3.763-.716-6.631-2.071-8.61-1.367-1.987-3.356-2.979-5.982-2.979h.04c-2.858 0-5.066 1.22-6.621 3.657-1.246 1.95-2.005 4.603-2.26 7.932h16.894Zm31.045 27.402c-5.306 0-9.519-1.666-12.631-4.996-3.099-3.331-4.658-7.838-4.658-13.526 0-7.591 2.151-13.9 6.444-18.937 4.291-5.036 9.679-7.554 16.166-7.554 1.745 0 3.37.243 4.874.716v-3.37c0-2.802-.136-5.133-.395-6.986a28.533 28.533 0 0 0-1.433-5.632l6.039-1.232 6.063-1.275c-.637 1.747-1.071 3.822-1.314 6.229-.231 2.413-.35 5.796-.35 10.157v32.841c0 3.357.133 5.957.416 7.8.273 1.84.76 3.437 1.451 4.817h-10.477V557.1l-5.12 5.797c-1.976.717-3.667 1.055-5.075 1.028Zm2.383-38.909c-3.833 0-6.593 1.3-8.287 3.913-1.692 2.598-2.543 6.851-2.543 12.739 0 4.712 1.027 8.449 3.07 11.211 2.046 2.762 4.82 4.142 8.315 4.142 1.692 0 3.262-.311 4.724-.949l2.533-1.354v-27.195c-2.005-1.666-4.618-2.507-7.812-2.507Zm27.17 25.344v-17.883c0-2.327-.134-4.414-.393-6.269-.271-1.854-.746-3.966-1.437-6.348h12.307c-.69 1.378-1.176 2.991-1.446 4.833-.285 1.853-.422 4.453-.422 7.784v17.883c0 3.357.137 5.957.422 7.8.27 1.84.756 3.437 1.446 4.817H164.06c.691-1.326 1.166-2.91 1.437-4.765.259-1.84.393-4.469.393-7.852Zm4.09-48.506c1.61 0 2.978.649 4.1 1.947 1.124 1.286 1.678 2.872 1.678 4.753 0 1.881-.554 3.452-1.678 4.739-1.122 1.286-2.49 1.923-4.1 1.923-1.625 0-2.994-.637-4.115-1.923-1.126-1.287-1.68-2.858-1.68-4.739 0-1.881.554-3.467 1.68-4.753 1.121-1.298 2.49-1.947 4.115-1.947Zm41.398 60.839c-1.962.503-3.534.84-4.738.987-1.205.164-2.627.245-4.267.245-5.711 0-10.463-2.003-14.267-6.024-3.791-4.021-5.686-9.071-5.686-15.149 0-6.824 2.099-12.508 6.309-17.044 4.198-4.536 9.464-6.796 15.786-6.796 1.692 0 3.166.051 4.425.176 1.246.121 2.992.378 5.213.772l-.432 9.948c-1.587-1.719-3.169-2.951-4.737-3.722-1.584-.77-3.305-1.152-5.185-1.152-3.808 0-6.825 1.437-9.059 4.306-2.233 2.871-3.357 6.742-3.357 11.643 0 4.998 1.192 8.962 3.56 11.899 2.356 2.941 5.551 4.401 9.572 4.401 1.378 0 2.802-.202 4.277-.597 1.489-.39 3.479-1.109 5.997-2.138l-3.411 8.245Zm21.417 1.232c-4.21 0-7.446-.894-9.72-2.694-2.274-1.801-3.412-4.371-3.412-7.703 0-2.22.799-4.305 2.396-6.27 1.6-1.948 3.763-3.502 6.484-4.641l12.702-5.227v-3.925c0-2.356-.731-4.225-2.183-5.605-1.461-1.394-3.411-2.084-5.874-2.084-1.584 0-3.113.27-4.603.811-1.474.541-3.102 1.434-4.875 2.67l2.383-8.288c1.693-.718 3.331-1.233 4.913-1.557 1.587-.338 3.198-.5 4.833-.5 4.657 0 8.164 1.218 10.508 3.654 2.343 2.425 3.508 6.066 3.508 10.899v16.895c0 3.603.108 6.324.337 8.151.215 1.84.623 3.329 1.204 4.466h-10.151v-4.13l-6.703 4.997-1.747.081Zm8.45-7.499v-11.859h-11.117c-.259 0-.595.799-1.014 2.395-.408 1.597-.61 2.953-.61 4.034 0 2.031.662 3.563 1.988 4.577 1.315 1.013 3.305 1.527 5.945 1.527 1.638 0 3.224-.228 4.726-.674h.082Zm19.046-6.066v-34.102c0-2.802-.136-5.133-.393-6.986a28.673 28.673 0 0 0-1.433-5.632l6.158-1.232 6.148-1.275c-.692 1.965-1.178 4.148-1.452 6.542-.282 2.408-.417 5.686-.417 9.844v32.841c0 3.357.135 5.957.417 7.8.274 1.84.76 3.437 1.452 4.817h-12.306c.689-1.326 1.164-2.91 1.433-4.765.257-1.84.393-4.469.393-7.852Z" clip-rule="evenodd" mask="url(#a)"/><mask id="b" width="409" height="66" x="594.022" y="499.307" fill="#000" maskUnits="userSpaceOnUse"><path fill="#fff" d="M594.022 499.307h409v66h-409z"/><path fill-rule="evenodd" d="M598.169 544.772v-25.738c0-3.822-.159-7.037-.469-9.65a50.62 50.62 0 0 0-1.678-8.077h33.465l-2.343 5-2.373 5.038c-2.37-1.255-4.691-2.134-6.944-2.641-2.265-.506-4.998-.758-8.171-.758h-2.2v20.031h19.807l-2.811 4.957-2.814 4.959c-1.985-1.201-4.037-2.039-6.168-2.531-2.135-.497-4.812-.747-8.014-.747v10.157c0 3.85.16 7.074.467 9.674.321 2.612.881 5.291 1.681 8.051h-13.539a50.265 50.265 0 0 0 1.635-7.97c.31-2.6.469-5.851.469-9.755Zm54.751 18.658c-5.358 0-9.824-1.988-13.396-5.955-3.559-3.96-5.343-8.947-5.343-14.929 0-6.72 1.984-12.302 5.956-16.754 3.971-4.453 8.931-6.679 14.902-6.679 5.384 0 9.849 1.989 13.407 5.971 3.557 3.985 5.33 8.969 5.33 14.954 0 6.718-1.972 12.288-5.929 16.727-3.961 4.437-8.931 6.665-14.927 6.665Zm4.569-5.934c2.293-.959 4.107-2.728 5.452-5.288 1.344-2.56 2.014-5.572 2.014-9.012 0-5.409-1.308-9.756-3.908-13.021-2.597-3.264-6.13-4.969-10.581-5.128-2.291.931-4.104 2.703-5.449 5.29-1.348 2.585-2.013 5.612-2.013 9.035 0 5.422 1.306 9.758 3.906 13.01 2.598 3.249 6.128 4.956 10.579 5.114Zm31.935-25.026v15.804c0 2.453.56 4.269 1.693 5.452 1.134 1.188 2.863 1.773 5.183 1.773 1.841 0 4.053-.506 6.636-1.52l1.402-.546V532.47c0-2.32-.132-4.388-.387-6.214-.267-1.825-.734-3.889-1.411-6.208h12.113c-.68 1.358-1.16 2.943-1.428 4.758-.276 1.827-.409 4.384-.409 7.664v17.608c0 3.301.133 5.86.409 7.673.268 1.814.748 3.386 1.428 4.746h-9.89v-7.223l-6.676 7.262c-2.412.626-4.239.933-5.465.933-3.825 0-6.731-1.014-8.702-3.051-1.987-2.026-2.973-4.986-2.973-8.865V532.47c0-2.295-.134-4.36-.385-6.173-.267-1.824-.733-3.906-1.412-6.249h12.112c-.679 1.358-1.16 2.943-1.452 4.758-.253 1.827-.386 4.384-.386 7.664Zm35.024 17.608V532.47c0-2.32-.131-4.388-.385-6.214-.266-1.825-.735-3.889-1.411-6.208h10.274v7.383l6.438-7.423c2.185-.602 4.012-.895 5.463-.895 3.851 0 6.784 1.201 8.783 3.612 2.013 2.414 3.012 5.917 3.012 10.529v16.824c0 3.542.109 6.22.333 8.021.214 1.809.612 3.278 1.188 4.398h-11.797c.681-1.306 1.146-2.867 1.415-4.692.25-1.812.386-4.4.386-7.727v-15.651c0-2.479-.575-4.319-1.721-5.532-1.144-1.211-2.905-1.812-5.264-1.812-1.613 0-3.718.601-6.331 1.8l-1.905.854v20.341c0 3.301.133 5.86.411 7.673.268 1.814.748 3.386 1.427 4.746h-12.112c.676-1.306 1.145-2.867 1.411-4.692.254-1.812.385-4.4.385-7.727Zm57.816 13.352c-5.221 0-9.367-1.641-12.433-4.917-3.051-3.282-4.584-7.717-4.584-13.318 0-7.475 2.12-13.686 6.343-18.643 4.224-4.96 9.528-7.439 15.912-7.439 1.72 0 3.319.242 4.8.709V516.5c0-2.757-.134-5.049-.388-6.876a28.08 28.08 0 0 0-1.413-5.543l5.945-1.214 5.973-1.252c-.626 1.718-1.054 3.759-1.296 6.13-.227 2.374-.345 5.705-.345 9.995v32.338c0 3.301.135 5.86.413 7.673.266 1.814.744 3.386 1.426 4.746h-10.315v-5.785l-5.038 5.705c-1.945.707-3.612 1.039-5 1.013Zm2.345-38.303c-3.769 0-6.489 1.277-8.154 3.85-1.667 2.556-2.507 6.743-2.507 12.541 0 4.64 1.013 8.318 3.027 11.036 2.011 2.72 4.745 4.079 8.182 4.079 1.665 0 3.213-.309 4.651-.933l2.494-1.335v-26.773c-1.973-1.64-4.545-2.465-7.693-2.465Zm36.586 38.303c-4.144 0-7.331-.88-9.567-2.654-2.242-1.773-3.361-4.305-3.361-7.583 0-2.185.787-4.237 2.36-6.171 1.573-1.919 3.704-3.453 6.384-4.569l12.499-5.147v-3.866c0-2.317-.717-4.157-2.144-5.517-1.438-1.371-3.359-2.051-5.784-2.051-1.559 0-3.065.266-4.531.799-1.452.533-3.055 1.411-4.799 2.625l2.346-8.157a25.634 25.634 0 0 1 4.839-1.531 22.704 22.704 0 0 1 4.758-.495c4.584 0 8.038 1.201 10.342 3.602 2.307 2.384 3.453 5.97 3.453 10.725v16.638c0 3.542.106 6.22.332 8.021.215 1.809.613 3.278 1.185 4.398h-9.997v-4.065l-6.594 4.917-1.721.081Zm8.315-7.384V544.37h-10.938c-.255 0-.587.788-1.002 2.36-.398 1.572-.598 2.905-.598 3.972 0 1.998.652 3.504 1.958 4.504 1.293.999 3.252 1.506 5.851 1.506 1.614 0 3.173-.227 4.65-.666h.079Zm29.297 7.384c-3.331 0-5.758-.989-7.29-2.973-1.52-1.972-2.279-5.145-2.279-9.49v-25.069h-6.011l14.447-15.219h.039v9.369h9.878v5.85h-9.878v21.511c0 2.867.495 5.011 1.466 6.423.973 1.428 2.44 2.136 4.386 2.136 1.198 0 2.306-.151 3.303-.427 1.001-.296 2.199-.802 3.613-1.523l-3.358 8.158c-1.481.492-2.785.827-3.891 1.001-1.108.172-2.572.253-4.425.253Zm15.967-13.352V532.47c0-2.295-.133-4.345-.386-6.173-.267-1.824-.733-3.906-1.413-6.249h12.116c-.681 1.358-1.16 2.943-1.426 4.758-.283 1.827-.414 4.384-.414 7.664v17.608c0 3.301.131 5.86.414 7.673.266 1.814.745 3.386 1.426 4.746h-12.116c.68-1.306 1.146-2.867 1.413-4.692.253-1.812.386-4.4.386-7.727Zm4.024-47.755c1.586 0 2.934.637 4.037 1.917 1.109 1.266 1.656 2.827 1.656 4.68 0 1.849-.547 3.399-1.656 4.661-1.103 1.27-2.451 1.896-4.037 1.896-1.598 0-2.943-.626-4.051-1.896-1.108-1.262-1.654-2.812-1.654-4.661 0-1.853.546-3.414 1.654-4.68 1.108-1.28 2.453-1.917 4.051-1.917Zm30.681 61.107c-5.359 0-9.82-1.988-13.394-5.955-3.56-3.96-5.344-8.947-5.344-14.929 0-6.72 1.987-12.302 5.957-16.754 3.971-4.453 8.931-6.679 14.899-6.679 5.387 0 9.853 1.989 13.41 5.971 3.558 3.985 5.33 8.969 5.33 14.954 0 6.718-1.974 12.288-5.932 16.727-3.957 4.437-8.927 6.665-14.926 6.665Zm4.573-5.934c2.29-.959 4.105-2.728 5.448-5.288 1.349-2.56 2.013-5.572 2.013-9.012 0-5.409-1.305-9.756-3.904-13.021-2.598-3.264-6.131-4.969-10.583-5.128-2.293.931-4.104 2.703-5.451 5.29-1.347 2.585-2.014 5.612-2.014 9.035 0 5.422 1.307 9.758 3.909 13.01 2.6 3.249 6.13 4.956 10.582 5.114Zm24.203-7.418V532.47c0-2.32-.136-4.388-.386-6.214-.268-1.825-.735-3.889-1.415-6.208h10.276v7.383l6.44-7.423c2.183-.602 4.009-.895 5.464-.895 3.85 0 6.783 1.201 8.782 3.612 2.013 2.414 3.011 5.917 3.011 10.529v16.824c0 3.542.107 6.22.333 8.021.213 1.809.614 3.278 1.186 4.398H960.15c.681-1.306 1.149-2.867 1.415-4.692.252-1.812.386-4.4.386-7.727v-15.651c0-2.479-.572-4.319-1.721-5.532-1.145-1.211-2.904-1.812-5.262-1.812-1.613 0-3.72.601-6.331 1.8l-1.907.854v20.341c0 3.301.135 5.86.415 7.673.264 1.814.748 3.386 1.423 4.746h-12.114c.68-1.306 1.147-2.867 1.415-4.692.25-1.812.386-4.4.386-7.727Zm62.225-20.968c-1.197-1.411-2.411-2.439-3.663-3.091-1.253-.654-2.641-.972-4.172-.972-1.692 0-3.105.438-4.213 1.332-1.119.879-1.678 1.985-1.678 3.317 0 1.294.374 2.468 1.134 3.504.717 1.054 2.116 2.36 4.17 3.946 3.466 2.694 5.89 5.039 7.305 7.078 1.367 1.997 2.067 4.169 2.067 6.518 0 3.639-1.27 6.664-3.814 9.075-2.544 2.415-5.745 3.613-9.597 3.613-2.104 0-3.916-.121-5.411-.374-1.491-.239-3.344-.721-5.532-1.427v-10.114c1.639 1.984 3.28 3.45 4.932 4.409 1.641.974 3.322 1.454 5.04 1.454 1.663 0 3.052-.493 4.145-1.465 1.093-.975 1.64-2.199 1.64-3.693 0-1.2-.441-2.346-1.335-3.464-.853-1.108-2.52-2.598-4.986-4.493-3.115-2.423-5.315-4.61-6.595-6.568-1.253-1.921-1.878-4.067-1.878-6.44 0-3.492 1.387-6.382 4.158-8.689 2.772-2.306 6.248-3.453 10.435-3.453 1.544 0 2.865.135 3.984.387 1.119.265 2.413.734 3.864 1.414v8.196Z" clip-rule="evenodd"/></mask><path fill="#E30016" fill-rule="evenodd" d="M598.169 544.772v-25.738c0-3.822-.159-7.037-.469-9.65a50.62 50.62 0 0 0-1.678-8.077h33.465l-2.343 5-2.373 5.038c-2.37-1.255-4.691-2.134-6.944-2.641-2.265-.506-4.998-.758-8.171-.758h-2.2v20.031h19.807l-2.811 4.957-2.814 4.959c-1.985-1.201-4.037-2.039-6.168-2.531-2.135-.497-4.812-.747-8.014-.747v10.157c0 3.85.16 7.074.467 9.674.321 2.612.881 5.291 1.681 8.051h-13.539a50.265 50.265 0 0 0 1.635-7.97c.31-2.6.469-5.851.469-9.755Zm54.751 18.658c-5.358 0-9.824-1.988-13.396-5.955-3.559-3.96-5.343-8.947-5.343-14.929 0-6.72 1.984-12.302 5.956-16.754 3.971-4.453 8.931-6.679 14.902-6.679 5.384 0 9.849 1.989 13.407 5.971 3.557 3.985 5.33 8.969 5.33 14.954 0 6.718-1.972 12.288-5.929 16.727-3.961 4.437-8.931 6.665-14.927 6.665Zm4.569-5.934c2.293-.959 4.107-2.728 5.452-5.288 1.344-2.56 2.014-5.572 2.014-9.012 0-5.409-1.308-9.756-3.908-13.021-2.597-3.264-6.13-4.969-10.581-5.128-2.291.931-4.104 2.703-5.449 5.29-1.348 2.585-2.013 5.612-2.013 9.035 0 5.422 1.306 9.758 3.906 13.01 2.598 3.249 6.128 4.956 10.579 5.114Zm31.935-25.026v15.804c0 2.453.56 4.269 1.693 5.452 1.134 1.188 2.863 1.773 5.183 1.773 1.841 0 4.053-.506 6.636-1.52l1.402-.546V532.47c0-2.32-.132-4.388-.387-6.214-.267-1.825-.734-3.889-1.411-6.208h12.113c-.68 1.358-1.16 2.943-1.428 4.758-.276 1.827-.409 4.384-.409 7.664v17.608c0 3.301.133 5.86.409 7.673.268 1.814.748 3.386 1.428 4.746h-9.89v-7.223l-6.676 7.262c-2.412.626-4.239.933-5.465.933-3.825 0-6.731-1.014-8.702-3.051-1.987-2.026-2.973-4.986-2.973-8.865V532.47c0-2.295-.134-4.36-.385-6.173-.267-1.824-.733-3.906-1.412-6.249h12.112c-.679 1.358-1.16 2.943-1.452 4.758-.253 1.827-.386 4.384-.386 7.664Zm35.024 17.608V532.47c0-2.32-.131-4.388-.385-6.214-.266-1.825-.735-3.889-1.411-6.208h10.274v7.383l6.438-7.423c2.185-.602 4.012-.895 5.463-.895 3.851 0 6.784 1.201 8.783 3.612 2.013 2.414 3.012 5.917 3.012 10.529v16.824c0 3.542.109 6.22.333 8.021.214 1.809.612 3.278 1.188 4.398h-11.797c.681-1.306 1.146-2.867 1.415-4.692.25-1.812.386-4.4.386-7.727v-15.651c0-2.479-.575-4.319-1.721-5.532-1.144-1.211-2.905-1.812-5.264-1.812-1.613 0-3.718.601-6.331 1.8l-1.905.854v20.341c0 3.301.133 5.86.411 7.673.268 1.814.748 3.386 1.427 4.746h-12.112c.676-1.306 1.145-2.867 1.411-4.692.254-1.812.385-4.4.385-7.727Zm57.816 13.352c-5.221 0-9.367-1.641-12.433-4.917-3.051-3.282-4.584-7.717-4.584-13.318 0-7.475 2.12-13.686 6.343-18.643 4.224-4.96 9.528-7.439 15.912-7.439 1.72 0 3.319.242 4.8.709V516.5c0-2.757-.134-5.049-.388-6.876a28.08 28.08 0 0 0-1.413-5.543l5.945-1.214 5.973-1.252c-.626 1.718-1.054 3.759-1.296 6.13-.227 2.374-.345 5.705-.345 9.995v32.338c0 3.301.135 5.86.413 7.673.266 1.814.744 3.386 1.426 4.746h-10.315v-5.785l-5.038 5.705c-1.945.707-3.612 1.039-5 1.013Zm2.345-38.303c-3.769 0-6.489 1.277-8.154 3.85-1.667 2.556-2.507 6.743-2.507 12.541 0 4.64 1.013 8.318 3.027 11.036 2.011 2.72 4.745 4.079 8.182 4.079 1.665 0 3.213-.309 4.651-.933l2.494-1.335v-26.773c-1.973-1.64-4.545-2.465-7.693-2.465Zm36.586 38.303c-4.144 0-7.331-.88-9.567-2.654-2.242-1.773-3.361-4.305-3.361-7.583 0-2.185.787-4.237 2.36-6.171 1.573-1.919 3.704-3.453 6.384-4.569l12.499-5.147v-3.866c0-2.317-.717-4.157-2.144-5.517-1.438-1.371-3.359-2.051-5.784-2.051-1.559 0-3.065.266-4.531.799-1.452.533-3.055 1.411-4.799 2.625l2.346-8.157a25.634 25.634 0 0 1 4.839-1.531 22.704 22.704 0 0 1 4.758-.495c4.584 0 8.038 1.201 10.342 3.602 2.307 2.384 3.453 5.97 3.453 10.725v16.638c0 3.542.106 6.22.332 8.021.215 1.809.613 3.278 1.185 4.398h-9.997v-4.065l-6.594 4.917-1.721.081Zm8.315-7.384V544.37h-10.938c-.255 0-.587.788-1.002 2.36-.398 1.572-.598 2.905-.598 3.972 0 1.998.652 3.504 1.958 4.504 1.293.999 3.252 1.506 5.851 1.506 1.614 0 3.173-.227 4.65-.666h.079Zm29.297 7.384c-3.331 0-5.758-.989-7.29-2.973-1.52-1.972-2.279-5.145-2.279-9.49v-25.069h-6.011l14.447-15.219h.039v9.369h9.878v5.85h-9.878v21.511c0 2.867.495 5.011 1.466 6.423.973 1.428 2.44 2.136 4.386 2.136 1.198 0 2.306-.151 3.303-.427 1.001-.296 2.199-.802 3.613-1.523l-3.358 8.158c-1.481.492-2.785.827-3.891 1.001-1.108.172-2.572.253-4.425.253Zm15.967-13.352V532.47c0-2.295-.133-4.345-.386-6.173-.267-1.824-.733-3.906-1.413-6.249h12.116c-.681 1.358-1.16 2.943-1.426 4.758-.283 1.827-.414 4.384-.414 7.664v17.608c0 3.301.131 5.86.414 7.673.266 1.814.745 3.386 1.426 4.746h-12.116c.68-1.306 1.146-2.867 1.413-4.692.253-1.812.386-4.4.386-7.727Zm4.024-47.755c1.586 0 2.934.637 4.037 1.917 1.109 1.266 1.656 2.827 1.656 4.68 0 1.849-.547 3.399-1.656 4.661-1.103 1.27-2.451 1.896-4.037 1.896-1.598 0-2.943-.626-4.051-1.896-1.108-1.262-1.654-2.812-1.654-4.661 0-1.853.546-3.414 1.654-4.68 1.108-1.28 2.453-1.917 4.051-1.917Zm30.681 61.107c-5.359 0-9.82-1.988-13.394-5.955-3.56-3.96-5.344-8.947-5.344-14.929 0-6.72 1.987-12.302 5.957-16.754 3.971-4.453 8.931-6.679 14.899-6.679 5.387 0 9.853 1.989 13.41 5.971 3.558 3.985 5.33 8.969 5.33 14.954 0 6.718-1.974 12.288-5.932 16.727-3.957 4.437-8.927 6.665-14.926 6.665Zm4.573-5.934c2.29-.959 4.105-2.728 5.448-5.288 1.349-2.56 2.013-5.572 2.013-9.012 0-5.409-1.305-9.756-3.904-13.021-2.598-3.264-6.131-4.969-10.583-5.128-2.293.931-4.104 2.703-5.451 5.29-1.347 2.585-2.014 5.612-2.014 9.035 0 5.422 1.307 9.758 3.909 13.01 2.6 3.249 6.13 4.956 10.582 5.114Zm24.203-7.418V532.47c0-2.32-.136-4.388-.386-6.214-.268-1.825-.735-3.889-1.415-6.208h10.276v7.383l6.44-7.423c2.183-.602 4.009-.895 5.464-.895 3.85 0 6.783 1.201 8.782 3.612 2.013 2.414 3.011 5.917 3.011 10.529v16.824c0 3.542.107 6.22.333 8.021.213 1.809.614 3.278 1.186 4.398H960.15c.681-1.306 1.149-2.867 1.415-4.692.252-1.812.386-4.4.386-7.727v-15.651c0-2.479-.572-4.319-1.721-5.532-1.145-1.211-2.904-1.812-5.262-1.812-1.613 0-3.72.601-6.331 1.8l-1.907.854v20.341c0 3.301.135 5.86.415 7.673.264 1.814.748 3.386 1.423 4.746h-12.114c.68-1.306 1.147-2.867 1.415-4.692.25-1.812.386-4.4.386-7.727Zm62.225-20.968c-1.197-1.411-2.411-2.439-3.663-3.091-1.253-.654-2.641-.972-4.172-.972-1.692 0-3.105.438-4.213 1.332-1.119.879-1.678 1.985-1.678 3.317 0 1.294.374 2.468 1.134 3.504.717 1.054 2.116 2.36 4.17 3.946 3.466 2.694 5.89 5.039 7.305 7.078 1.367 1.997 2.067 4.169 2.067 6.518 0 3.639-1.27 6.664-3.814 9.075-2.544 2.415-5.745 3.613-9.597 3.613-2.104 0-3.916-.121-5.411-.374-1.491-.239-3.344-.721-5.532-1.427v-10.114c1.639 1.984 3.28 3.45 4.932 4.409 1.641.974 3.322 1.454 5.04 1.454 1.663 0 3.052-.493 4.145-1.465 1.093-.975 1.64-2.199 1.64-3.693 0-1.2-.441-2.346-1.335-3.464-.853-1.108-2.52-2.598-4.986-4.493-3.115-2.423-5.315-4.61-6.595-6.568-1.253-1.921-1.878-4.067-1.878-6.44 0-3.492 1.387-6.382 4.158-8.689 2.772-2.306 6.248-3.453 10.435-3.453 1.544 0 2.865.135 3.984.387 1.119.265 2.413.734 3.864 1.414v8.196Z" clip-rule="evenodd"/><path stroke="#E30016" stroke-width="2" d="M598.169 544.772v-25.738c0-3.822-.159-7.037-.469-9.65a50.62 50.62 0 0 0-1.678-8.077h33.465l-2.343 5-2.373 5.038c-2.37-1.255-4.691-2.134-6.944-2.641-2.265-.506-4.998-.758-8.171-.758h-2.2v20.031h19.807l-2.811 4.957-2.814 4.959c-1.985-1.201-4.037-2.039-6.168-2.531-2.135-.497-4.812-.747-8.014-.747v10.157c0 3.85.16 7.074.467 9.674.321 2.612.881 5.291 1.681 8.051h-13.539a50.265 50.265 0 0 0 1.635-7.97c.31-2.6.469-5.851.469-9.755Zm54.751 18.658c-5.358 0-9.824-1.988-13.396-5.955-3.559-3.96-5.343-8.947-5.343-14.929 0-6.72 1.984-12.302 5.956-16.754 3.971-4.453 8.931-6.679 14.902-6.679 5.384 0 9.849 1.989 13.407 5.971 3.557 3.985 5.33 8.969 5.33 14.954 0 6.718-1.972 12.288-5.929 16.727-3.961 4.437-8.931 6.665-14.927 6.665Zm4.569-5.934c2.293-.959 4.107-2.728 5.452-5.288 1.344-2.56 2.014-5.572 2.014-9.012 0-5.409-1.308-9.756-3.908-13.021-2.597-3.264-6.13-4.969-10.581-5.128-2.291.931-4.104 2.703-5.449 5.29-1.348 2.585-2.013 5.612-2.013 9.035 0 5.422 1.306 9.758 3.906 13.01 2.598 3.249 6.128 4.956 10.579 5.114Zm31.935-25.026v15.804c0 2.453.56 4.269 1.693 5.452 1.134 1.188 2.863 1.773 5.183 1.773 1.841 0 4.053-.506 6.636-1.52l1.402-.546V532.47c0-2.32-.132-4.388-.387-6.214-.267-1.825-.734-3.889-1.411-6.208h12.113c-.68 1.358-1.16 2.943-1.428 4.758-.276 1.827-.409 4.384-.409 7.664v17.608c0 3.301.133 5.86.409 7.673.268 1.814.748 3.386 1.428 4.746h-9.89v-7.223l-6.676 7.262c-2.412.626-4.239.933-5.465.933-3.825 0-6.731-1.014-8.702-3.051-1.987-2.026-2.973-4.986-2.973-8.865V532.47c0-2.295-.134-4.36-.385-6.173-.267-1.824-.733-3.906-1.412-6.249h12.112c-.679 1.358-1.16 2.943-1.452 4.758-.253 1.827-.386 4.384-.386 7.664Zm35.024 17.608V532.47c0-2.32-.131-4.388-.385-6.214-.266-1.825-.735-3.889-1.411-6.208h10.274v7.383l6.438-7.423c2.185-.602 4.012-.895 5.463-.895 3.851 0 6.784 1.201 8.783 3.612 2.013 2.414 3.012 5.917 3.012 10.529v16.824c0 3.542.109 6.22.333 8.021.214 1.809.612 3.278 1.188 4.398h-11.797c.681-1.306 1.146-2.867 1.415-4.692.25-1.812.386-4.4.386-7.727v-15.651c0-2.479-.575-4.319-1.721-5.532-1.144-1.211-2.905-1.812-5.264-1.812-1.613 0-3.718.601-6.331 1.8l-1.905.854v20.341c0 3.301.133 5.86.411 7.673.268 1.814.748 3.386 1.427 4.746h-12.112c.676-1.306 1.145-2.867 1.411-4.692.254-1.812.385-4.4.385-7.727Zm57.816 13.352c-5.221 0-9.367-1.641-12.433-4.917-3.051-3.282-4.584-7.717-4.584-13.318 0-7.475 2.12-13.686 6.343-18.643 4.224-4.96 9.528-7.439 15.912-7.439 1.72 0 3.319.242 4.8.709V516.5c0-2.757-.134-5.049-.388-6.876a28.08 28.08 0 0 0-1.413-5.543l5.945-1.214 5.973-1.252c-.626 1.718-1.054 3.759-1.296 6.13-.227 2.374-.345 5.705-.345 9.995v32.338c0 3.301.135 5.86.413 7.673.266 1.814.744 3.386 1.426 4.746h-10.315v-5.785l-5.038 5.705c-1.945.707-3.612 1.039-5 1.013Zm2.345-38.303c-3.769 0-6.489 1.277-8.154 3.85-1.667 2.556-2.507 6.743-2.507 12.541 0 4.64 1.013 8.318 3.027 11.036 2.011 2.72 4.745 4.079 8.182 4.079 1.665 0 3.213-.309 4.651-.933l2.494-1.335v-26.773c-1.973-1.64-4.545-2.465-7.693-2.465Zm36.586 38.303c-4.144 0-7.331-.88-9.567-2.654-2.242-1.773-3.361-4.305-3.361-7.583 0-2.185.787-4.237 2.36-6.171 1.573-1.919 3.704-3.453 6.384-4.569l12.499-5.147v-3.866c0-2.317-.717-4.157-2.144-5.517-1.438-1.371-3.359-2.051-5.784-2.051-1.559 0-3.065.266-4.531.799-1.452.533-3.055 1.411-4.799 2.625l2.346-8.157a25.634 25.634 0 0 1 4.839-1.531 22.704 22.704 0 0 1 4.758-.495c4.584 0 8.038 1.201 10.342 3.602 2.307 2.384 3.453 5.97 3.453 10.725v16.638c0 3.542.106 6.22.332 8.021.215 1.809.613 3.278 1.185 4.398h-9.997v-4.065l-6.594 4.917-1.721.081Zm8.315-7.384V544.37h-10.938c-.255 0-.587.788-1.002 2.36-.398 1.572-.598 2.905-.598 3.972 0 1.998.652 3.504 1.958 4.504 1.293.999 3.252 1.506 5.851 1.506 1.614 0 3.173-.227 4.65-.666h.079Zm29.297 7.384c-3.331 0-5.758-.989-7.29-2.973-1.52-1.972-2.279-5.145-2.279-9.49v-25.069h-6.011l14.447-15.219h.039v9.369h9.878v5.85h-9.878v21.511c0 2.867.495 5.011 1.466 6.423.973 1.428 2.44 2.136 4.386 2.136 1.198 0 2.306-.151 3.303-.427 1.001-.296 2.199-.802 3.613-1.523l-3.358 8.158c-1.481.492-2.785.827-3.891 1.001-1.108.172-2.572.253-4.425.253Zm15.967-13.352V532.47c0-2.295-.133-4.345-.386-6.173-.267-1.824-.733-3.906-1.413-6.249h12.116c-.681 1.358-1.16 2.943-1.426 4.758-.283 1.827-.414 4.384-.414 7.664v17.608c0 3.301.131 5.86.414 7.673.266 1.814.745 3.386 1.426 4.746h-12.116c.68-1.306 1.146-2.867 1.413-4.692.253-1.812.386-4.4.386-7.727Zm4.024-47.755c1.586 0 2.934.637 4.037 1.917 1.109 1.266 1.656 2.827 1.656 4.68 0 1.849-.547 3.399-1.656 4.661-1.103 1.27-2.451 1.896-4.037 1.896-1.598 0-2.943-.626-4.051-1.896-1.108-1.262-1.654-2.812-1.654-4.661 0-1.853.546-3.414 1.654-4.68 1.108-1.28 2.453-1.917 4.051-1.917Zm30.681 61.107c-5.359 0-9.82-1.988-13.394-5.955-3.56-3.96-5.344-8.947-5.344-14.929 0-6.72 1.987-12.302 5.957-16.754 3.971-4.453 8.931-6.679 14.899-6.679 5.387 0 9.853 1.989 13.41 5.971 3.558 3.985 5.33 8.969 5.33 14.954 0 6.718-1.974 12.288-5.932 16.727-3.957 4.437-8.927 6.665-14.926 6.665Zm4.573-5.934c2.29-.959 4.105-2.728 5.448-5.288 1.349-2.56 2.013-5.572 2.013-9.012 0-5.409-1.305-9.756-3.904-13.021-2.598-3.264-6.131-4.969-10.583-5.128-2.293.931-4.104 2.703-5.451 5.29-1.347 2.585-2.014 5.612-2.014 9.035 0 5.422 1.307 9.758 3.909 13.01 2.6 3.249 6.13 4.956 10.582 5.114Zm24.203-7.418V532.47c0-2.32-.136-4.388-.386-6.214-.268-1.825-.735-3.889-1.415-6.208h10.276v7.383l6.44-7.423c2.183-.602 4.009-.895 5.464-.895 3.85 0 6.783 1.201 8.782 3.612 2.013 2.414 3.011 5.917 3.011 10.529v16.824c0 3.542.107 6.22.333 8.021.213 1.809.614 3.278 1.186 4.398H960.15c.681-1.306 1.149-2.867 1.415-4.692.252-1.812.386-4.4.386-7.727v-15.651c0-2.479-.572-4.319-1.721-5.532-1.145-1.211-2.904-1.812-5.262-1.812-1.613 0-3.72.601-6.331 1.8l-1.907.854v20.341c0 3.301.135 5.86.415 7.673.264 1.814.748 3.386 1.423 4.746h-12.114c.68-1.306 1.147-2.867 1.415-4.692.25-1.812.386-4.4.386-7.727Zm62.225-20.968c-1.197-1.411-2.411-2.439-3.663-3.091-1.253-.654-2.641-.972-4.172-.972-1.692 0-3.105.438-4.213 1.332-1.119.879-1.678 1.985-1.678 3.317 0 1.294.374 2.468 1.134 3.504.717 1.054 2.116 2.36 4.17 3.946 3.466 2.694 5.89 5.039 7.305 7.078 1.367 1.997 2.067 4.169 2.067 6.518 0 3.639-1.27 6.664-3.814 9.075-2.544 2.415-5.745 3.613-9.597 3.613-2.104 0-3.916-.121-5.411-.374-1.491-.239-3.344-.721-5.532-1.427v-10.114c1.639 1.984 3.28 3.45 4.932 4.409 1.641.974 3.322 1.454 5.04 1.454 1.663 0 3.052-.493 4.145-1.465 1.093-.975 1.64-2.199 1.64-3.693 0-1.2-.441-2.346-1.335-3.464-.853-1.108-2.52-2.598-4.986-4.493-3.115-2.423-5.315-4.61-6.595-6.568-1.253-1.921-1.878-4.067-1.878-6.44 0-3.492 1.387-6.382 4.158-8.689 2.772-2.306 6.248-3.453 10.435-3.453 1.544 0 2.865.135 3.984.387 1.119.265 2.413.734 3.864 1.414v8.196Z" clip-rule="evenodd" mask="url(#b)"/><path fill="#E30016" stroke="#E30016" d="M311.649 500.226h-.667l.188.64a50.932 50.932 0 0 1 1.689 8.122c.307 2.627.473 5.869.473 9.744v26.142c0 3.982-.166 7.262-.473 9.849a50.538 50.538 0 0 1-1.648 8.015l-.186.64h15.087l-.186-.64a51.288 51.288 0 0 1-1.69-8.096c-.307-2.614-.473-5.869-.473-9.768v-26.142c0-3.953.166-7.237.472-9.836.323-2.602.86-5.285 1.652-8.032l.184-.638h-14.422Zm25.467 0h-.668l.188.64c.819 2.8 1.367 5.51 1.69 8.122.306 2.627.469 5.869.469 9.744v26.142c0 3.982-.163 7.262-.469 9.849a50.755 50.755 0 0 1-1.651 8.015l-.186.64h15.086l-.185-.639c-.805-2.779-1.37-5.475-1.689-8.098-.309-2.613-.471-5.867-.471-9.767v-26.142c0-3.954.162-7.238.471-9.836a52.05 52.05 0 0 1 1.649-8.032l.184-.638h-14.418Zm32.645 8.414c2.208-.331 4.831-.553 7.874-.691v36.925c0 3.653-.175 6.796-.51 9.41-.349 2.609-.966 5.43-1.852 8.453l-.188.641h15.575l-.186-.64c-.903-3.093-1.517-5.954-1.866-8.576v-.002c-.361-2.61-.538-5.713-.538-9.286v-37.17c2.145.1 4.244.371 6.296.806 2.53.574 5.62 1.544 9.248 2.905l.504.188.151-.515 1.502-5.104.001-.003 1.477-5.117.184-.638h-45.752l-.115.339-1.828 5.387-.001.001-1.827 5.359-.405 1.187 1.11-.583c2.902-1.523 6.605-2.62 11.143-3.275l.003-.001Zm41.373 23.589-.694-.293v11.533l.668-.238c.674-.24 1.649-.464 2.959-.636l.006-.001a25.994 25.994 0 0 1 3.69-.282h4.833c1.045 0 2.219.118 3.491.371l.006.001c1.294.241 2.338.529 3.134.863l.693.29v-11.534l-.669.24c-.671.241-1.649.464-2.957.639l-.005.001a25.993 25.993 0 0 1-3.693.279h-4.833c-1.043 0-2.217-.119-3.49-.369l-.005-.001c-1.294-.24-2.341-.529-3.134-.863Zm43.768 26.955.001-.001c3.866-3.626 5.748-8.994 5.748-16.033v-24.829c0-3.317.222-6.677.649-10.055.431-3.387.961-5.831 1.574-7.355l.276-.686h-24.807l-.123.319-3.39 8.753-.334.862.904-.192c3.349-.711 6.127-1.17 8.301-1.395a77.366 77.366 0 0 1 5.589-.347v31.946c0 7.927-2.387 13.915-7.099 18.054-2.496 2.169-5.518 3.757-9.086 4.78l-.107.03-.084.074-.045.039-.738.644.955.22a21.52 21.52 0 0 0 4.855.542c7.415 0 13.102-1.769 16.961-5.37Zm17.116 3.555-.185.639h34.031l.128-.308 2.613-6.268.001-.002 2.587-6.267.554-1.342-1.263.717c-3.669 2.081-7.893 3.567-12.65 4.425-3.485.634-7.902 1.034-13.261 1.208v-20.485c3.191.007 5.825.264 7.917.745a20.661 20.661 0 0 1 6.119 2.514l.441.268.254-.449 2.858-5.038 2.855-5.034.424-.746h-20.868v-19.35h2.046c3.224 0 5.976.256 8.217.76h.001c2.25.503 4.55 1.379 6.897 2.636l.464.249.224-.476 2.411-5.118v-.001l2.381-5.078.333-.712h-35.754l.187.639a51.505 51.505 0 0 1 1.686 8.123c.31 2.627.471 5.868.471 9.744v26.142c0 3.953-.161 7.236-.471 9.849a50.774 50.774 0 0 1-1.648 8.016Zm44.936 0-.186.639h34.031l.128-.308 2.61-6.268.001-.002 2.587-6.267.554-1.342-1.263.717c-3.669 2.081-7.891 3.567-12.65 4.425h-.001c-3.481.635-7.898 1.034-13.26 1.208v-20.485c3.193.007 5.828.263 7.917.745a20.727 20.727 0 0 1 6.123 2.514l.44.268.254-.449 2.855-5.038 2.859-5.034.424-.746h-20.872v-19.35h2.046c3.224 0 5.976.256 8.216.76h.001c2.251.503 4.551 1.379 6.898 2.637l.464.248.225-.476 2.411-5.118.001-.001 2.383-5.078.334-.712h-35.761l.187.64a50.829 50.829 0 0 1 1.69 8.122c.308 2.627.472 5.868.472 9.744v26.142c0 3.953-.164 7.236-.472 9.849a50.764 50.764 0 0 1-1.646 8.016Z"/><path fill="#1B1918" fill-rule="evenodd" d="M570.072 571.812v-78.85h6v78.85h-6Z" clip-rule="evenodd"/></svg>